<svg width="512" height="512" viewBox="0 0 512 512" fill="none" xmlns="http://www.w3.org/2000/svg">
<g filter="url(#filter0_d_0_3)">
<mask id="path-1-outside-1_0_3" maskUnits="userSpaceOnUse" x="114" y="163" width="295" height="193" fill="black">
<rect fill="white" x="114" y="163" width="295" height="193"/>
<path d="M119.229 351V168.728H170.429V351H119.229ZM160.701 286.232V243.736H250.301V286.232H160.701ZM160.701 211.224V168.728H254.141V211.224H160.701ZM276.479 351V168.728H327.679V351H276.479ZM318.207 351V307.48H403.455V351H318.207Z"/>
</mask>
<path d="M119.229 351V168.728H170.429V351H119.229ZM160.701 286.232V243.736H250.301V286.232H160.701ZM160.701 211.224V168.728H254.141V211.224H160.701ZM276.479 351V168.728H327.679V351H276.479ZM318.207 351V307.48H403.455V351H318.207Z" fill="white"/>
<path d="M119.229 351H114.229V356H119.229V351ZM119.229 168.728V163.728H114.229V168.728H119.229ZM170.429 168.728H175.429V163.728H170.429V168.728ZM170.429 351V356H175.429V351H170.429ZM160.701 286.232H155.701V291.232H160.701V286.232ZM160.701 243.736V238.736H155.701V243.736H160.701ZM250.301 243.736H255.301V238.736H250.301V243.736ZM250.301 286.232V291.232H255.301V286.232H250.301ZM160.701 211.224H155.701V216.224H160.701V211.224ZM160.701 168.728V163.728H155.701V168.728H160.701ZM254.141 168.728H259.141V163.728H254.141V168.728ZM254.141 211.224V216.224H259.141V211.224H254.141ZM119.229 351H124.229V168.728H119.229H114.229V351H119.229ZM119.229 168.728V173.728H170.429V168.728V163.728H119.229V168.728ZM170.429 168.728H165.429V351H170.429H175.429V168.728H170.429ZM170.429 351V346H119.229V351V356H170.429V351ZM160.701 286.232H165.701V243.736H160.701H155.701V286.232H160.701ZM160.701 243.736V248.736H250.301V243.736V238.736H160.701V243.736ZM250.301 243.736H245.301V286.232H250.301H255.301V243.736H250.301ZM250.301 286.232V281.232H160.701V286.232V291.232H250.301V286.232ZM160.701 211.224H165.701V168.728H160.701H155.701V211.224H160.701ZM160.701 168.728V173.728H254.141V168.728V163.728H160.701V168.728ZM254.141 168.728H249.141V211.224H254.141H259.141V168.728H254.141ZM254.141 211.224V206.224H160.701V211.224V216.224H254.141V211.224ZM276.479 351H271.479V356H276.479V351ZM276.479 168.728V163.728H271.479V168.728H276.479ZM327.679 168.728H332.679V163.728H327.679V168.728ZM327.679 351V356H332.679V351H327.679ZM318.207 351H313.207V356H318.207V351ZM318.207 307.48V302.48H313.207V307.48H318.207ZM403.455 307.48H408.455V302.48H403.455V307.48ZM403.455 351V356H408.455V351H403.455ZM276.479 351H281.479V168.728H276.479H271.479V351H276.479ZM276.479 168.728V173.728H327.679V168.728V163.728H276.479V168.728ZM327.679 168.728H322.679V351H327.679H332.679V168.728H327.679ZM327.679 351V346H276.479V351V356H327.679V351ZM318.207 351H323.207V307.48H318.207H313.207V351H318.207ZM318.207 307.48V312.48H403.455V307.48V302.48H318.207V307.48ZM403.455 307.48H398.455V351H403.455H408.455V307.48H403.455ZM403.455 351V346H318.207V351V356H403.455V351Z" fill="#AD3FD2" mask="url(#path-1-outside-1_0_3)"/>
</g>
<defs>
<filter id="filter0_d_0_3" x="37.529" y="87.028" width="447.626" height="345.672" filterUnits="userSpaceOnUse" color-interpolation-filters="sRGB">
<feFlood flood-opacity="0" result="BackgroundImageFix"/>
<feColorMatrix in="SourceAlpha" type="matrix" values="0 0 0 0 0 0 0 0 0 0 0 0 0 0 0 0 0 0 127 0" result="hardAlpha"/>
<feOffset/>
<feGaussianBlur stdDeviation="38.35"/>
<feComposite in2="hardAlpha" operator="out"/>
<feColorMatrix type="matrix" values="0 0 0 0 0.678838 0 0 0 0 0.249006 0 0 0 0 0.822115 0 0 0 0.5 0"/>
<feBlend mode="normal" in2="BackgroundImageFix" result="effect1_dropShadow_0_3"/>
<feBlend mode="normal" in="SourceGraphic" in2="effect1_dropShadow_0_3" result="shape"/>
</filter>
</defs>
</svg>
