<?xml version="1.0" encoding="UTF-8"?>
<svg version="1.1" xmlns="http://www.w3.org/2000/svg" width="512" height="512">
<path d="M0 0 C12.1184904 10.03358882 19.75782164 24.62600163 22.35546875 40.04296875 C24.15660091 59.93809738 20.17943494 76.38789904 7.66796875 92.23046875 C-1.21203656 102.49298986 -12.16247242 109.79595895 -25.64453125 112.04296875 C-25.31453125 146.69296875 -24.98453125 181.34296875 -24.64453125 217.04296875 C-22.33453125 215.06296875 -20.02453125 213.08296875 -17.64453125 211.04296875 C5.07650912 196.2782974 26.80604755 193.45302965 53.32061768 193.42132568 C58.18043819 193.41354726 63.04010742 193.38606075 67.89976501 193.34634399 C70.47096687 193.32705593 73.0422673 193.31734084 75.61354065 193.31942749 C94.23674964 193.21038556 109.88945854 189.99485326 125.35546875 179.04296875 C126.38671875 178.32109375 127.41796875 177.59921875 128.48046875 176.85546875 C138.83127594 167.67137104 146.48947579 153.75922871 148.35546875 140.04296875 C148.46503906 139.25148437 148.57460938 138.46 148.6875 137.64453125 C149.64529883 129.13927764 149.44562503 120.58778073 149.35546875 112.04296875 C148.76121094 111.89601563 148.16695312 111.7490625 147.5546875 111.59765625 C131.5772083 107.27404601 118.66366104 97.4369119 110.35546875 83.04296875 C101.98392427 66.97812992 99.02174079 49.03020867 103.79174805 31.20751953 C109.0720076 14.53713284 120.65804312 0.80632899 136.046875 -7.390625 C138.78115043 -8.70136585 141.52985422 -9.85818115 144.35546875 -10.95703125 C145.13664063 -11.27800781 145.9178125 -11.59898438 146.72265625 -11.9296875 C163.02678936 -17.52934983 181.46355008 -14.63528151 196.65234375 -7.3828125 C211.47715454 0.6880553 221.59084851 12.75958928 227.6015625 28.46875 C232.75148179 46.05318944 231.97541124 64.17808377 223.73046875 80.66796875 C215.4532038 94.75384069 203.91606039 105.60725983 188.35546875 111.04296875 C186.3585975 111.3945599 184.35877015 111.73008758 182.35546875 112.04296875 C182.37641602 112.8930249 182.39736328 113.74308105 182.41894531 114.61889648 C183.05816903 144.51069694 179.51458914 169.35203396 159.35546875 193.04296875 C158.824375 193.71972656 158.29328125 194.39648438 157.74609375 195.09375 C145.99797664 209.6044194 127.33940491 219.83581762 109.35546875 224.04296875 C108.68975861 224.20765152 108.02404846 224.37233429 107.33816528 224.54200745 C100.06313275 226.19184282 93.00033793 226.35495345 85.5625 226.38671875 C83.56865302 226.40907335 81.57480609 226.43143872 79.580966 226.45439911 C76.11002996 226.49182304 72.63900639 226.51701575 69.16796875 226.54296875 C65.03829883 226.57399076 60.90873874 226.60747948 56.77922058 226.65490723 C54.2191716 226.68350507 51.65901615 226.7041857 49.09883118 226.71520996 C30.89257551 226.92081089 13.90148909 229.2089183 -0.64453125 241.04296875 C-1.42570312 241.66171875 -2.206875 242.28046875 -3.01171875 242.91796875 C-14.90347025 252.84778145 -22.40370026 266.93760127 -23.98852539 282.39892578 C-24.28583578 286.27878872 -24.5374625 290.15867041 -24.76953125 294.04296875 C-24.85609601 295.40368893 -24.94333014 296.7643667 -25.03125 298.125 C-25.24224788 301.43063344 -25.44647661 304.73653882 -25.64453125 308.04296875 C-24.73082764 308.17711182 -23.81712402 308.31125488 -22.87573242 308.44946289 C-9.07217593 310.98489514 3.11066156 321.0091661 11.23046875 331.98046875 C14.56342344 337.08355727 17.14838311 342.36760567 19.35546875 348.04296875 C19.83693359 349.21472656 19.83693359 349.21472656 20.328125 350.41015625 C25.73316131 366.14761081 23.18425273 384.46160414 16.16796875 399.10546875 C7.47896777 416.17413859 -6.72896409 426.82648581 -24.64453125 432.98046875 C-42.39448235 437.18786457 -60.8020781 434.11124378 -76.47265625 425.1484375 C-91.07951114 415.45250796 -101.6300436 400.85200953 -105.24536133 383.54589844 C-108.04541054 365.98864795 -105.84956778 348.33007313 -95.5859375 333.56640625 C-86.25049519 321.43220961 -76.02711952 313.54990647 -61.64453125 308.04296875 C-60.65453125 308.04296875 -59.66453125 308.04296875 -58.64453125 308.04296875 C-58.64453125 243.36296875 -58.64453125 178.68296875 -58.64453125 112.04296875 C-61.94453125 111.05296875 -65.24453125 110.06296875 -68.64453125 109.04296875 C-85.06652895 102.1701379 -95.15248097 89.04485347 -102.3828125 73.31640625 C-108.04995234 58.61342425 -107.91244282 40.15109494 -102.1875 25.453125 C-94.34358009 8.1170691 -81.30406432 -4.08943505 -63.64453125 -10.95703125 C-62.86335938 -11.27800781 -62.0821875 -11.59898438 -61.27734375 -11.9296875 C-40.18065143 -19.17535659 -17.30586063 -12.80684812 0 0 Z M-65.45703125 28.79296875 C-71.14603203 35.81512284 -74.10364825 43.55672005 -73.4609375 52.63671875 C-72.19092453 61.95887582 -68.05531735 69.96792471 -60.55859375 75.796875 C-51.91229717 81.42579053 -43.5104286 83.00486819 -33.44921875 80.88671875 C-23.67340737 77.94580613 -17.61477356 71.80656011 -12.55078125 63.1796875 C-8.99965952 55.50203081 -9.40348393 45.49856643 -12.20703125 37.66796875 C-16.81938509 27.9325506 -23.64039885 22.82725443 -33.64453125 19.04296875 C-45.24200524 15.88172181 -57.38623609 20.17267265 -65.45703125 28.79296875 Z M142.54296875 28.79296875 C136.85396797 35.81512284 133.89635175 43.55672005 134.5390625 52.63671875 C135.80907547 61.95887582 139.94468265 69.96792471 147.44140625 75.796875 C156.08770283 81.42579053 164.4895714 83.00486819 174.55078125 80.88671875 C184.32659263 77.94580613 190.38522644 71.80656011 195.44921875 63.1796875 C199.00034048 55.50203081 198.59651607 45.49856643 195.79296875 37.66796875 C191.18061491 27.9325506 184.35960115 22.82725443 174.35546875 19.04296875 C162.75799476 15.88172181 150.61376391 20.17267265 142.54296875 28.79296875 Z M-65.45703125 348.79296875 C-71.14603203 355.81512284 -74.10364825 363.55672005 -73.4609375 372.63671875 C-72.19092453 381.95887582 -68.05531735 389.96792471 -60.55859375 395.796875 C-51.91229717 401.42579053 -43.5104286 403.00486819 -33.44921875 400.88671875 C-23.67340737 397.94580613 -17.61477356 391.80656011 -12.55078125 383.1796875 C-8.99965952 375.50203081 -9.40348393 365.49856643 -12.20703125 357.66796875 C-16.81938509 347.9325506 -23.64039885 342.82725443 -33.64453125 339.04296875 C-45.24200524 335.88172181 -57.38623609 340.17267265 -65.45703125 348.79296875 Z " fill="#000000" transform="translate(193.64453125,45.95703125)"/>
</svg>
